<mxfile host="Electron" modified="2024-09-19T13:18:43.028Z" agent="Mozilla/5.0 (Windows NT 10.0; Win64; x64) AppleWebKit/537.36 (KHTML, like Gecko) draw.io/22.0.3 Chrome/114.0.5735.289 Electron/25.8.4 Safari/537.36" etag="dnvlneBkUqLZCxKCvJ2J" version="22.0.3" type="device">
  <diagram name="Asset 2" id="Asset_2">
    <mxGraphModel dx="1404" dy="926" grid="1" gridSize="10" guides="1" tooltips="1" connect="1" arrows="1" fold="1" page="1" pageScale="1" pageWidth="1200" pageHeight="290" math="0" shadow="0">
      <root>
        <mxCell id="0" />
        <mxCell id="1" parent="0" />
        <UserObject label="" tags="Background" id="2">
          <mxCell style="vsdxID=2;fillColor=#000000;gradientColor=none;shape=stencil(rVjLctswDPwaH4MhCT7PafofnsRJPHXjVHGa5O8LjQSQhGP60ptNkVoB2F1A2uDt2/P2dbdx5u00HX/tPvYPp+cN/tg4t3953k37E/3a4N0Gbx+P0+5pOr6/PCz/X7fzzvnX7+Pf+Q6fyzmfIMyHnPlaFrIHt6z8XPbfv0/LAbtsCAZ8XI+sS8lAScvSp1vvm8Hadde6FBIgrruw7irrLl5CKHmE357hJQvF9fj0lFh6fEzgksKn6GOPjwFwjO+hYI+PCNH2+ASWVfy0K/TwtMJPJPCOn2iF3073dHnichmIfjkxrQWzAdwa6brJOkgc+7Li6K7rsc+b7ef+7WY6nran/fFluW6Wa4ft9LS7IcSbx8P2qbv09rHbvTbLdpSiBKlPkCVSxT5B9EgxK4KAz6o+AUxQCYJShvQk8NyjI1jfg6cAQVXH1xKuSJnO5R48QxlqI2dAp0K3kFXoVWKCTiWLsYdPqSoIJY3eXSbHfJ2pyezIBjIndU1QAdOzwxZR1H9ihxklKXoIqkLOAgaVJKI19kkiXjldIwPJ9UlCA86N8CmxUfGTVMdgjB8rWCNg43v8aMX5vqqosx8ylOTpFX44ww9Ua0USjJBdj9/uYs2QP6cW/8/79qGFb45US8/2KjzFanEY2PmdIwlC39nWkrEc45nyA9mw0h7ZZwd/2L80jYx0L21JZGbi6HmJiFapNVtwuX/eWCCqTpIyZ6KqNZ8RgaJKI3i6jqqRZuFuC6+tKjeWwjx07Aw1X55DuYTfdB/Gj+I5jG+NUegFVBct8cyp5qURdsEzDQiQjBCxNtp1qZC5q8hJFEElft41JCpZRFIjRD1TI0fmT8XP8tgSPLOyjT0OeRcgqbwXXwXA6FHMpsl8UbQj685K/9SDxtFTP4yad6nOB3WA8ao/z+xQ/kO7ihqgiHdhGD7m6qyMT3RQ/k+WbFX2tfmhFXMRcMtivRQ8eahKfirc1etw4qs0nezSwdMIU9T0Omt+iI8NqWo/0vhYaomq6PWE0Mzujea7AaX3yOvDfv9yQJ0quu4AVWXc23JNiZUqJeUpyctQIr2NaqmUlVwdkzjj6coARm4pzcVKLXlJWlBTOK44Cpi0IFvbQ5VbGWrLq8GGJjJ+DWHwUmqnYK0La6uhi3sLeOTB9gK29fVlxnbjGUMrJ6diGh1zU3H8vuSq7V6lSE8pekgxvzUfw4KSWeigyF+NIlSUl7Zq1bGOlNUZs9IrGe/YL1JjsGxWRd5chNA0cylCkVkWReiA4H2Pn8WOLsUfQMPTkTO3Shq9yFuQtIom8xx94Ex+W9trtaIf9bPC4/5wWL5KtNf1ZwhaWj5h4N0/);strokeColor=none;strokeWidth=4;spacingTop=-3;spacingBottom=-3;spacingLeft=-3;spacingRight=-3;points=[];labelBackgroundColor=none;rounded=0;html=1;whiteSpace=wrap;" parent="1" vertex="1">
            <mxGeometry x="388" y="7" width="98.79" height="263" as="geometry" />
          </mxCell>
        </UserObject>
        <UserObject label="" tags="Background" id="3">
          <mxCell style="vsdxID=3;fillColor=#000000;gradientColor=none;shape=stencil(hZTJcuMwDES/RtcuEgC3c5b/SCXOWDWOnVKc7e9DDyXaQMqamwSBek2w2QPfvG0fXjcDubfjdPi7+RyfjtuBbweicb/dTOOxPg18N/DN82Ha/JkO7/un9v76cOo8Pb0cPk5/+GrrUkCk0ypy363infv3ft/aH9+n1u/b51iQ4rxgLhWPlFrpi3pXznPXXMoM8nMXz10EN5e+uevxYY0fBJ41Pya4ovnCiKz50cEbPgdQ0vxA4LLG9wXR7J/zL77TbJ8gZNgJ3rAjEq+O3sGQnaYuR9e5AayphZENlQi0is0ZbCZexTNptmSUoOlCENF8EZAYfj3xS/xu3F/4UyLiInjul6VyzSERRFovVXFGb6zTJq2XBRK13pSQo9GbsT6usDjojK+eNfhcf2w8ElGSpmeHkDXd01K6ZpKIYE5LftmzOrbbYC6dL2x3qANberfCtdsR+qC7VwgmHMSdI2QpBThj1XrRY9H4erKyGg7JwWZD6Wboo6+CisbXbComG1K952b3pUDU7rVV/xul9eEcw8/jbtdS/PK7je1aapHPdz8=);strokeColor=none;strokeWidth=4;spacingTop=-3;spacingBottom=-3;spacingLeft=-3;spacingRight=-3;points=[];labelBackgroundColor=none;rounded=0;html=1;whiteSpace=wrap;" parent="1" vertex="1">
            <mxGeometry x="496" y="7" width="62.03" height="117" as="geometry" />
          </mxCell>
        </UserObject>
        <UserObject label="" tags="Background" id="8">
          <mxCell style="vsdxID=8;fillColor=#000000;gradientColor=none;shape=stencil(lZLdcsIgEIWfhtsd2CU/XFt9D0ejYUwTh8Q2vr3ERQt0dNq7zWEP3244glZjuz03AuU4ueHUfNv91Ar6EIi2bxtnJ18JWgtaHQbXHN1w6ff8fd4unUv1OXwtN8zsqyowenGhvLKiDRi6Kxs27C6OHeq3JUhFCcqwNCNLSsrQkwszBRM+TdcgGQNYvmPLlGtq0DrlYgW1Ssl+usfAD3bcRX/cO/YESROoMuXXoIoUn6+tQWOKllC8JfvfouuUrEBmi8fPgs/x8sXjrleLd7b/X0J88ZOvg+06jmd8nufRS5xlWt8A);strokeColor=none;strokeWidth=4;spacingTop=-3;spacingBottom=-3;spacingLeft=-3;spacingRight=-3;points=[];labelBackgroundColor=none;rounded=0;html=1;whiteSpace=wrap;" parent="1" vertex="1">
            <mxGeometry x="756" y="11" width="17.54" height="116" as="geometry" />
          </mxCell>
        </UserObject>
        <UserObject label="" tags="Background" id="MqFF9MQt-ypoT81EKBjG-13">
          <mxCell style="vsdxID=3;fillColor=#000000;gradientColor=none;shape=stencil(hZTJcuMwDES/RtcuEgC3c5b/SCXOWDWOnVKc7e9DDyXaQMqamwSBek2w2QPfvG0fXjcDubfjdPi7+RyfjtuBbweicb/dTOOxPg18N/DN82Ha/JkO7/un9v76cOo8Pb0cPk5/+GrrUkCk0ypy363infv3ft/aH9+n1u/b51iQ4rxgLhWPlFrpi3pXznPXXMoM8nMXz10EN5e+uevxYY0fBJ41Pya4ovnCiKz50cEbPgdQ0vxA4LLG9wXR7J/zL77TbJ8gZNgJ3rAjEq+O3sGQnaYuR9e5AayphZENlQi0is0ZbCZexTNptmSUoOlCENF8EZAYfj3xS/xu3F/4UyLiInjul6VyzSERRFovVXFGb6zTJq2XBRK13pSQo9GbsT6usDjojK+eNfhcf2w8ElGSpmeHkDXd01K6ZpKIYE5LftmzOrbbYC6dL2x3qANberfCtdsR+qC7VwgmHMSdI2QpBThj1XrRY9H4erKyGg7JwWZD6Wboo6+CisbXbComG1K952b3pUDU7rVV/xul9eEcw8/jbtdS/PK7je1aapHPdz8=);strokeColor=none;strokeWidth=4;spacingTop=-3;spacingBottom=-3;spacingLeft=-3;spacingRight=-3;points=[];labelBackgroundColor=none;rounded=0;html=1;whiteSpace=wrap;" parent="1" vertex="1">
            <mxGeometry x="576" y="7" width="62.03" height="117" as="geometry" />
          </mxCell>
        </UserObject>
        <UserObject label="" tags="Background" id="MqFF9MQt-ypoT81EKBjG-14">
          <mxCell style="vsdxID=3;fillColor=#000000;gradientColor=none;shape=stencil(hZTJcuMwDES/RtcuEgC3c5b/SCXOWDWOnVKc7e9DDyXaQMqamwSBek2w2QPfvG0fXjcDubfjdPi7+RyfjtuBbweicb/dTOOxPg18N/DN82Ha/JkO7/un9v76cOo8Pb0cPk5/+GrrUkCk0ypy363infv3ft/aH9+n1u/b51iQ4rxgLhWPlFrpi3pXznPXXMoM8nMXz10EN5e+uevxYY0fBJ41Pya4ovnCiKz50cEbPgdQ0vxA4LLG9wXR7J/zL77TbJ8gZNgJ3rAjEq+O3sGQnaYuR9e5AayphZENlQi0is0ZbCZexTNptmSUoOlCENF8EZAYfj3xS/xu3F/4UyLiInjul6VyzSERRFovVXFGb6zTJq2XBRK13pSQo9GbsT6usDjojK+eNfhcf2w8ElGSpmeHkDXd01K6ZpKIYE5LftmzOrbbYC6dL2x3qANberfCtdsR+qC7VwgmHMSdI2QpBThj1XrRY9H4erKyGg7JwWZD6Wboo6+CisbXbComG1K952b3pUDU7rVV/xul9eEcw8/jbtdS/PK7je1aapHPdz8=);strokeColor=none;strokeWidth=4;spacingTop=-3;spacingBottom=-3;spacingLeft=-3;spacingRight=-3;points=[];labelBackgroundColor=none;rounded=0;html=1;whiteSpace=wrap;" parent="1" vertex="1">
            <mxGeometry x="656" y="7" width="62.03" height="117" as="geometry" />
          </mxCell>
        </UserObject>
        <UserObject label="" tags="Background" id="MqFF9MQt-ypoT81EKBjG-15">
          <mxCell style="vsdxID=3;fillColor=#000000;gradientColor=none;shape=stencil(hZTJcuMwDES/RtcuEgC3c5b/SCXOWDWOnVKc7e9DDyXaQMqamwSBek2w2QPfvG0fXjcDubfjdPi7+RyfjtuBbweicb/dTOOxPg18N/DN82Ha/JkO7/un9v76cOo8Pb0cPk5/+GrrUkCk0ypy363infv3ft/aH9+n1u/b51iQ4rxgLhWPlFrpi3pXznPXXMoM8nMXz10EN5e+uevxYY0fBJ41Pya4ovnCiKz50cEbPgdQ0vxA4LLG9wXR7J/zL77TbJ8gZNgJ3rAjEq+O3sGQnaYuR9e5AayphZENlQi0is0ZbCZexTNptmSUoOlCENF8EZAYfj3xS/xu3F/4UyLiInjul6VyzSERRFovVXFGb6zTJq2XBRK13pSQo9GbsT6usDjojK+eNfhcf2w8ElGSpmeHkDXd01K6ZpKIYE5LftmzOrbbYC6dL2x3qANberfCtdsR+qC7VwgmHMSdI2QpBThj1XrRY9H4erKyGg7JwWZD6Wboo6+CisbXbComG1K952b3pUDU7rVV/xul9eEcw8/jbtdS/PK7je1aapHPdz8=);strokeColor=none;strokeWidth=4;spacingTop=-3;spacingBottom=-3;spacingLeft=-3;spacingRight=-3;points=[];labelBackgroundColor=none;rounded=0;html=1;whiteSpace=wrap;" parent="1" vertex="1">
            <mxGeometry x="496" y="147" width="62.03" height="117" as="geometry" />
          </mxCell>
        </UserObject>
        <UserObject label="" tags="Background" id="MqFF9MQt-ypoT81EKBjG-16">
          <mxCell style="vsdxID=3;fillColor=#000000;gradientColor=none;shape=stencil(hZTJcuMwDES/RtcuEgC3c5b/SCXOWDWOnVKc7e9DDyXaQMqamwSBek2w2QPfvG0fXjcDubfjdPi7+RyfjtuBbweicb/dTOOxPg18N/DN82Ha/JkO7/un9v76cOo8Pb0cPk5/+GrrUkCk0ypy363infv3ft/aH9+n1u/b51iQ4rxgLhWPlFrpi3pXznPXXMoM8nMXz10EN5e+uevxYY0fBJ41Pya4ovnCiKz50cEbPgdQ0vxA4LLG9wXR7J/zL77TbJ8gZNgJ3rAjEq+O3sGQnaYuR9e5AayphZENlQi0is0ZbCZexTNptmSUoOlCENF8EZAYfj3xS/xu3F/4UyLiInjul6VyzSERRFovVXFGb6zTJq2XBRK13pSQo9GbsT6usDjojK+eNfhcf2w8ElGSpmeHkDXd01K6ZpKIYE5LftmzOrbbYC6dL2x3qANberfCtdsR+qC7VwgmHMSdI2QpBThj1XrRY9H4erKyGg7JwWZD6Wboo6+CisbXbComG1K952b3pUDU7rVV/xul9eEcw8/jbtdS/PK7je1aapHPdz8=);strokeColor=none;strokeWidth=4;spacingTop=-3;spacingBottom=-3;spacingLeft=-3;spacingRight=-3;points=[];labelBackgroundColor=none;rounded=0;html=1;whiteSpace=wrap;" parent="1" vertex="1">
            <mxGeometry x="576" y="147" width="62.03" height="117" as="geometry" />
          </mxCell>
        </UserObject>
        <UserObject label="" tags="Background" id="MqFF9MQt-ypoT81EKBjG-18">
          <mxCell style="vsdxID=8;fillColor=#000000;gradientColor=none;shape=stencil(lZLdcsIgEIWfhtsd2CU/XFt9D0ejYUwTh8Q2vr3ERQt0dNq7zWEP3244glZjuz03AuU4ueHUfNv91Ar6EIi2bxtnJ18JWgtaHQbXHN1w6ff8fd4unUv1OXwtN8zsqyowenGhvLKiDRi6Kxs27C6OHeq3JUhFCcqwNCNLSsrQkwszBRM+TdcgGQNYvmPLlGtq0DrlYgW1Ssl+usfAD3bcRX/cO/YESROoMuXXoIoUn6+tQWOKllC8JfvfouuUrEBmi8fPgs/x8sXjrleLd7b/X0J88ZOvg+06jmd8nufRS5xlWt8A);strokeColor=none;strokeWidth=4;spacingTop=-3;spacingBottom=-3;spacingLeft=-3;spacingRight=-3;points=[];labelBackgroundColor=none;rounded=0;html=1;whiteSpace=wrap;" parent="1" vertex="1">
            <mxGeometry x="788" y="11" width="17.54" height="116" as="geometry" />
          </mxCell>
        </UserObject>
        <UserObject label="" tags="Background" id="MqFF9MQt-ypoT81EKBjG-19">
          <mxCell style="vsdxID=8;fillColor=#000000;gradientColor=none;shape=stencil(lZLdcsIgEIWfhtsd2CU/XFt9D0ejYUwTh8Q2vr3ERQt0dNq7zWEP3244glZjuz03AuU4ueHUfNv91Ar6EIi2bxtnJ18JWgtaHQbXHN1w6ff8fd4unUv1OXwtN8zsqyowenGhvLKiDRi6Kxs27C6OHeq3JUhFCcqwNCNLSsrQkwszBRM+TdcgGQNYvmPLlGtq0DrlYgW1Ssl+usfAD3bcRX/cO/YESROoMuXXoIoUn6+tQWOKllC8JfvfouuUrEBmi8fPgs/x8sXjrleLd7b/X0J88ZOvg+06jmd8nufRS5xlWt8A);strokeColor=none;strokeWidth=4;spacingTop=-3;spacingBottom=-3;spacingLeft=-3;spacingRight=-3;points=[];labelBackgroundColor=none;rounded=0;html=1;whiteSpace=wrap;" parent="1" vertex="1">
            <mxGeometry x="826" y="11" width="17.54" height="116" as="geometry" />
          </mxCell>
        </UserObject>
        <UserObject label="" tags="Background" id="MqFF9MQt-ypoT81EKBjG-20">
          <mxCell style="vsdxID=8;fillColor=#000000;gradientColor=none;shape=stencil(lZLdcsIgEIWfhtsd2CU/XFt9D0ejYUwTh8Q2vr3ERQt0dNq7zWEP3244glZjuz03AuU4ueHUfNv91Ar6EIi2bxtnJ18JWgtaHQbXHN1w6ff8fd4unUv1OXwtN8zsqyowenGhvLKiDRi6Kxs27C6OHeq3JUhFCcqwNCNLSsrQkwszBRM+TdcgGQNYvmPLlGtq0DrlYgW1Ssl+usfAD3bcRX/cO/YESROoMuXXoIoUn6+tQWOKllC8JfvfouuUrEBmi8fPgs/x8sXjrleLd7b/X0J88ZOvg+06jmd8nufRS5xlWt8A);strokeColor=none;strokeWidth=4;spacingTop=-3;spacingBottom=-3;spacingLeft=-3;spacingRight=-3;points=[];labelBackgroundColor=none;rounded=0;html=1;whiteSpace=wrap;" parent="1" vertex="1">
            <mxGeometry x="756" y="148" width="17.54" height="116" as="geometry" />
          </mxCell>
        </UserObject>
        <UserObject label="" tags="Background" id="MqFF9MQt-ypoT81EKBjG-21">
          <mxCell style="vsdxID=8;fillColor=#000000;gradientColor=none;shape=stencil(lZLdcsIgEIWfhtsd2CU/XFt9D0ejYUwTh8Q2vr3ERQt0dNq7zWEP3244glZjuz03AuU4ueHUfNv91Ar6EIi2bxtnJ18JWgtaHQbXHN1w6ff8fd4unUv1OXwtN8zsqyowenGhvLKiDRi6Kxs27C6OHeq3JUhFCcqwNCNLSsrQkwszBRM+TdcgGQNYvmPLlGtq0DrlYgW1Ssl+usfAD3bcRX/cO/YESROoMuXXoIoUn6+tQWOKllC8JfvfouuUrEBmi8fPgs/x8sXjrleLd7b/X0J88ZOvg+06jmd8nufRS5xlWt8A);strokeColor=none;strokeWidth=4;spacingTop=-3;spacingBottom=-3;spacingLeft=-3;spacingRight=-3;points=[];labelBackgroundColor=none;rounded=0;html=1;whiteSpace=wrap;" parent="1" vertex="1">
            <mxGeometry x="788" y="148" width="17.54" height="116" as="geometry" />
          </mxCell>
        </UserObject>
        <UserObject label="" tags="Background" id="MqFF9MQt-ypoT81EKBjG-22">
          <mxCell style="vsdxID=8;fillColor=#000000;gradientColor=none;shape=stencil(lZLdcsIgEIWfhtsd2CU/XFt9D0ejYUwTh8Q2vr3ERQt0dNq7zWEP3244glZjuz03AuU4ueHUfNv91Ar6EIi2bxtnJ18JWgtaHQbXHN1w6ff8fd4unUv1OXwtN8zsqyowenGhvLKiDRi6Kxs27C6OHeq3JUhFCcqwNCNLSsrQkwszBRM+TdcgGQNYvmPLlGtq0DrlYgW1Ssl+usfAD3bcRX/cO/YESROoMuXXoIoUn6+tQWOKllC8JfvfouuUrEBmi8fPgs/x8sXjrleLd7b/X0J88ZOvg+06jmd8nufRS5xlWt8A);strokeColor=none;strokeWidth=4;spacingTop=-3;spacingBottom=-3;spacingLeft=-3;spacingRight=-3;points=[];labelBackgroundColor=none;rounded=0;html=1;whiteSpace=wrap;" parent="1" vertex="1">
            <mxGeometry x="826" y="148" width="17.54" height="116" as="geometry" />
          </mxCell>
        </UserObject>
      </root>
    </mxGraphModel>
  </diagram>
</mxfile>
